<?xml version="1.0" encoding="utf-8"?>
<!-- Generator: Adobe Illustrator 25.4.1, SVG Export Plug-In . SVG Version: 6.00 Build 0)  -->
<svg version="1.1" id="Calque_1" focusable="false" xmlns="http://www.w3.org/2000/svg" xmlns:xlink="http://www.w3.org/1999/xlink"
	 x="0px" y="0px" viewBox="0 0 480 512" style="enable-background:new 0 0 480 512;" xml:space="preserve">
<path d="M215,71.1l-89,88.9H24c-13.3,0-24,10.7-24,24v144c0,13.2,10.7,24,24,24h102.1l89,89c15,15,41,4.5,41-17V88
	C256,66.6,230,56,215,71.1z M480,256c0-63.5-32.1-121.9-85.8-156.2c-11.2-7.1-26-3.8-33.1,7.5s-3.8,26.2,7.4,33.4
	C408.3,166,432,209.1,432,256s-23.7,90-63.5,115.4c-11.2,7.1-14.5,22.1-7.4,33.4c6.5,10.4,21.1,15.1,33.1,7.5
	C447.9,377.9,480,319.5,480,256z M338.2,179.1c-11.6-6.3-26.2-2.2-32.6,9.4c-6.4,11.6-2.2,26.2,9.5,32.6
	C328,228.3,336,241.6,336,256c0,14.4-8,27.7-20.9,34.8c-11.6,6.4-15.8,21-9.5,32.6c6.4,11.7,21,15.8,32.6,9.5
	c28.2-15.5,45.8-45,45.8-76.9S366.5,194.7,338.2,179.1L338.2,179.1z"/>
</svg>
